<?xml version="1.0" standalone="no"?>
<!DOCTYPE svg PUBLIC "-//W3C//DTD SVG 1.1//EN" "http://www.w3.org/Graphics/SVG/1.1/DTD/svg11.dtd" >
<!--
2013-9-30: Created.
-->
<svg>
<metadata>
Created by iconfont
</metadata>
<defs>

<font id="iconfont" horiz-adv-x="1024" >
  <font-face
    font-family="iconfont"
    font-weight="500"
    font-stretch="normal"
    units-per-em="1024"
    ascent="896"
    descent="-128"
  />
    <missing-glyph />
    
    <glyph glyph-name="twitter" unicode="&#59560;" d="M1024 701.58336c-37.6832-16.71168-78.17216-27.99616-120.66816-33.0752 43.37664 26.0096 76.67712 67.1744 92.3648 116.224-40.59136-24.08448-85.56544-41.55392-133.40672-50.97472-38.31808 40.83712-92.91776 66.33472-153.35424 66.33472-116.0192 0-210.08384-94.06464-210.08384-210.08384 0-16.46592 1.86368-32.50176 5.44768-47.88224-174.592 8.76544-329.40032 92.40576-433.00864 219.50464-18.08384-31.0272-28.44672-67.11296-28.44672-105.61536 0-72.88832 37.08928-137.19552 93.45024-174.85824-34.44736 1.08544-66.82624 10.5472-95.15008 26.27584-0.02048-0.88064-0.02048-1.76128-0.02048-2.64192 0-101.7856 72.41728-186.69568 168.52992-206.00832-17.63328-4.79232-36.18816-7.3728-55.35744-7.3728-13.53728 0-26.70592 1.31072-39.5264 3.76832 26.7264-83.456 104.32512-144.19968 196.25984-145.89952-71.90528-56.34048-162.48832-89.92768-260.9152-89.92768-16.95744 0-33.6896 1.00352-50.11456 2.94912 92.9792-59.61728 203.40736-94.39232 322.048-94.39232 386.41664 0 597.72928 320.12288 597.72928 597.74976 0 9.1136-0.2048 18.16576-0.6144 27.17696 41.0624 29.61408 76.67712 66.62144 104.83712 108.7488z"  horiz-adv-x="1025" />

    
    <glyph glyph-name="music" unicode="&#59030;" d="M903.108141 831.995267c-183.118598-3.806699-376.940978-48.998971-560.01455-111.995747-0.11154 1.285273 0-559.991014 0-559.991014-33.038464 8.006348-89.207741 2.405793-128.463814-16.297175-72.740698-34.886555-112.499214-105.334024-88.587618-157.412123 23.798009-51.966559 102.141308-65.967434 174.938288-31.139208 66.584488 37.635155 98.110505 92.848665 98.110505 148.84705l0.896416 475.993948c144.275941 44.73997 302.868959 75.821873 447.12034 83.995019l0-447.990151c-42.00058 7.897877-90.718141-3.695159-130.926912-22.960944-72.851215-34.885532-112.554472-105.33607-88.586594-157.298536 23.853267-52.080146 102.140285-66.081021 174.938288-31.194466 51.801806 24.750707 100.57565 67.983347 100.57565 154.560168L903.108141 831.995267 903.108141 831.995267zM903.108141 831.995267"  horiz-adv-x="1024" />

    
    <glyph glyph-name="yidiandiantubiao09" unicode="&#58882;" d="M571.485477 595.302905c29.742739 23.369295 101.975104 84.979253 218.821577 31.86722 121.095436-55.236515 131.717842-195.452282 125.344398-240.06639-21.244813-193.327801-403.651452-427.020747-403.651452-427.020747C169.958506 185.278008 116.846473 325.493776 108.348548 384.979253c-6.373444 59.485477 6.373444 195.452282 125.344398 240.06639s189.078838-8.497925 218.821577-31.86722c10.622407-8.497925 23.369295-19.120332 31.86722-29.742739 12.746888-14.871369 36.116183-14.871369 50.987552 0C548.116183 574.058091 558.738589 586.804979 571.485477 595.302905zM495.004149-103.651452c10.622407-6.373444 23.369295-6.373444 33.991701 0 59.485477 38.240664 263.435685 172.082988 373.908714 320.79668 129.593361 176.33195 67.983402 316.547718 21.244813 380.282158s-121.095436 114.721992-233.692946 114.721992c-95.60166-2.124481-155.087137-50.987552-172.082988-65.858921C514.124481 642.041494 509.875519 642.041494 507.751037 644.165975c-16.995851 14.871369-78.605809 63.73444-172.082988 65.858921-112.59751 2.124481-186.954357-50.987552-233.692946-114.721992s-108.348548-203.950207 21.244813-380.282158C231.568465 66.307054 435.518672-67.53527 495.004149-103.651452z"  horiz-adv-x="1024" />

    
    <glyph glyph-name="weibiaoti505" unicode="&#58898;" d="M762.56 435.648c-3.328 16.448-8.384 32.64-14.912 48.128-6.4 15.168-14.336 29.824-23.616 43.52-9.152 13.568-19.648 26.304-31.232 37.888-11.584 11.584-24.32 22.08-37.888 31.232C641.216 605.632 626.56 613.632 611.392 620.032 595.968 626.56 579.712 631.616 563.264 634.944 546.432 638.4 529.088 640.192 511.744 640.192c-17.344 0-34.688-1.792-51.584-5.248C443.776 631.616 427.52 626.56 412.096 620.032c-15.168-6.464-29.824-14.4-43.52-23.616C355.008 587.264 342.272 576.768 330.688 565.184 319.168 553.6 308.672 540.864 299.456 527.296c-9.216-13.696-17.216-28.288-23.616-43.52C269.312 468.288 264.32 452.096 260.928 435.648 257.472 418.816 255.744 401.472 255.744 384.128c0-17.344 1.728-34.752 5.184-51.584 3.392-16.448 8.384-32.64 14.912-48.128 6.4-15.168 14.336-29.824 23.616-43.52 9.152-13.568 19.648-26.304 31.232-37.888 11.584-11.584 24.32-22.08 37.888-31.232 13.696-9.216 28.352-17.216 43.52-23.616 15.488-6.528 31.68-11.584 48.128-14.912 16.896-3.52 34.24-5.248 51.584-5.248 17.344 0 34.688 1.728 51.52 5.248 16.448 3.328 32.64 8.32 48.128 14.912 15.168 6.4 29.824 14.4 43.456 23.616 13.568 9.152 26.304 19.648 37.888 31.232 11.584 11.584 22.08 24.32 31.232 37.888 9.216 13.696 17.216 28.352 23.616 43.52 6.528 15.488 11.584 31.68 14.912 48.128 3.456 16.832 5.184 34.24 5.184 51.584C767.744 401.472 766.016 418.816 762.56 435.648zM730.304 386.304c-3.136 0.704-77.184 16.64-152.256 7.168C576.512 397.184 574.912 400.96 573.312 404.736 568.768 415.424 563.84 426.048 558.784 436.416c86.336 35.264 121.408 85.952 121.792 86.592C711.232 485.76 729.792 438.208 730.304 386.304zM656.128 548.224c-0.576-0.832-31.68-48.256-114.24-79.168C504.576 537.728 463.488 592.256 460.224 596.608c16.512 3.968 33.792 6.144 51.52 6.144C567.104 602.752 617.6 582.144 656.128 548.224zM459.392 596.416C459.392 596.416 459.328 596.352 459.392 596.416 459.328 596.352 459.072 596.288 458.688 596.224 458.944 596.288 459.136 596.352 459.392 596.416zM418.432 581.888c2.88-3.904 43.328-58.688 81.216-126.016-104.96-27.904-196.096-26.816-201.856-26.688C312 496.896 357.504 553.088 418.432 581.888zM293.12 384.128c0 2.368 0.128 4.608 0.192 6.912 3.84-0.064 111.872-2.56 224.448 31.168C524.032 409.92 529.984 397.44 535.488 385.024 532.608 384.192 529.728 383.36 526.912 382.4 408.896 344.256 349.056 238.08 349.056 238.08s0.064-0.064 0.064-0.128C314.304 276.736 293.12 327.936 293.12 384.128zM511.744 165.44c-52.928 0-101.44 18.816-139.264 50.112 2.88-2.304 4.864-3.84 4.864-3.84s41.92 91.456 171.584 136.576C549.44 348.48 549.888 348.608 550.4 348.8c30.784-79.936 43.456-146.88 46.72-166.016C570.88 171.584 542.016 165.44 511.744 165.44zM633.92 202.752C631.68 215.936 620.032 280.128 591.36 358.976c70.592 11.264 131.712-8.064 136.256-9.6C717.888 288.448 683.008 235.904 633.92 202.752z"  horiz-adv-x="1024" />

    
    <glyph glyph-name="upload" unicode="&#58928;" d="M810.666667 59.264 213.333333 59.264C189.76 59.264 170.666667 78.464 170.666667 102.144L170.666667 316.522667 256 316.522667 256 145.024 768 145.024 768 316.522667 853.333333 316.522667 853.333333 102.144C853.333333 78.464 834.24 59.264 810.666667 59.264ZM652.672 540.544 544.362667 540.544 544.362667 282.474667 458.304 282.474667 458.304 540.544 350.016 540.544C342.336 540.544 338.496 549.802667 343.936 555.221333L495.253333 706.496C498.624 709.845333 504.064 709.845333 507.413333 706.496L658.752 555.221333C664.170667 549.802667 660.330667 540.544 652.672 540.544Z"  horiz-adv-x="1024" />

    
    <glyph glyph-name="verticalalignbottom" unicode="&#60780;" d="M169.984 86.016l683.989333 0 0-86.016-683.989333 0 0 86.016zM681.984 342.016l-169.984-171.989333-169.984 171.989333 128 0 0 425.984 84.010667 0 0-425.984 128 0z"  horiz-adv-x="1024" />

    
    <glyph glyph-name="verticalaligncenter" unicode="&#60781;" d="M169.984 425.984l683.989333 0 0-84.010667-683.989333 0 0 84.010667zM681.984 681.984l-169.984-169.984-169.984 169.984 128 0 0 171.989333 84.010667 0 0-171.989333 128 0zM342.016 86.016l169.984 169.984 169.984-169.984-128 0 0-171.989333-84.010667 0 0 171.989333-128 0z"  horiz-adv-x="1024" />

    
    <glyph glyph-name="alert" unicode="&#58907;" d="M554.666667 298.666667 469.333333 298.666667 469.333333 469.333333 554.666667 469.333333M554.666667 128 469.333333 128 469.333333 213.333333 554.666667 213.333333M42.666667 0 981.333333 0 512 810.666667 42.666667 0Z"  horiz-adv-x="1024" />

    
    <glyph glyph-name="clock" unicode="&#59206;" d="M512 42.666667C700.586667 42.666667 853.333333 195.413333 853.333333 384 853.333333 572.586667 700.586667 725.333333 512 725.333333 323.413333 725.333333 170.666667 572.586667 170.666667 384 170.666667 195.413333 323.413333 42.666667 512 42.666667M512 810.666667C747.52 810.666667 938.666667 619.52 938.666667 384 938.666667 148.48 747.52-42.666667 512-42.666667 276.053333-42.666667 85.333333 149.333333 85.333333 384 85.333333 619.52 276.48 810.666667 512 810.666667M533.333333 597.333333 533.333333 373.333333 725.333333 259.413333 693.333333 206.933333 469.333333 341.333333 469.333333 597.333333 533.333333 597.333333Z"  horiz-adv-x="1024" />

    
    <glyph glyph-name="filecheck" unicode="&#59403;" d="M554.666667 512 789.333333 512 554.666667 746.666667 554.666667 512M256 810.666667 597.333333 810.666667 853.333333 554.666667 853.333333 42.666667C853.333333-4.266667 814.933333-42.666667 768-42.666667L256-42.666667C208.64-42.666667 170.666667-4.266667 170.666667 42.666667L170.666667 725.333333C170.666667 772.693333 208.64 810.666667 256 810.666667M445.866667 108.373333 648.533333 311.04 598.613333 371.2 445.866667 218.453333 378.026667 285.866667 328.533333 236.373333 445.866667 108.373333Z"  horiz-adv-x="1024" />

    
    <glyph glyph-name="signal" unicode="&#60050;" d="M128 0 256 0 256 128 128 128M341.333333 0 469.333333 0 469.333333 298.666667 341.333333 298.666667M554.666667 0 682.666667 0 682.666667 512 554.666667 512M768 0 896 0 896 768 768 768 768 0Z"  horiz-adv-x="1024" />

    
    <glyph glyph-name="youtubeplay" unicode="&#60358;" d="M426.666667 192 426.666667 576 682.666667 384M853.333333 708.266667C827.733333 716.8 669.866667 725.333333 512 725.333333 354.133333 725.333333 196.266667 717.226667 170.666667 709.12 104.106667 686.933333 85.333333 537.6 85.333333 384 85.333333 230.826667 104.106667 81.066667 170.666667 59.306667 196.266667 50.773333 354.133333 42.666667 512 42.666667 669.866667 42.666667 827.733333 50.773333 853.333333 59.306667 919.893333 81.066667 938.666667 230.826667 938.666667 384 938.666667 537.6 919.893333 686.506667 853.333333 708.266667Z"  horiz-adv-x="1024" />

    
    <glyph glyph-name="apple" unicode="&#58904;" d="M908 201.728q-22.272-71.424-70.272-142.848-73.728-112-146.848-112-28 0-80 18.272-49.152 18.272-86.272 18.272-34.848 0-81.152-18.848-46.272-19.424-75.424-19.424-86.848 0-172 148-84 149.152-84 287.424 0 130.272 64.576 213.728 64 82.272 162.272 82.272 41.152 0 101.152-17.152 59.424-17.152 78.848-17.152 25.728 0 81.728 19.424 58.272 19.424 98.848 19.424 68 0 121.728-37.152 29.728-20.576 59.424-57.152-45.152-38.272-65.152-67.424-37.152-53.728-37.152-118.272 0-70.848 39.424-127.424t90.272-72zM693.152 872q0-34.848-16.576-77.728-17.152-42.848-53.152-78.848-30.848-30.848-61.728-41.152-21.152-6.272-59.424-9.728 1.728 85.152 44.576 146.848 42.272 61.152 142.848 84.576 0.576-1.728 1.44-6.272t1.44-6.272q0-2.272 0.288-5.728t0.288-5.728z"  horiz-adv-x="1024" />

    
    <glyph glyph-name="linkedin" unicode="&#59236;" d="M272.544 538.848l0-566.272-188.576 0 0 566.272 188.576 0zM284.544 713.728q0.576-41.728-28.864-69.728t-77.44-28l-1.152 0q-46.848 0-75.424 28t-28.576 69.728q0 42.272 29.44 70.016t76.864 27.712 76-27.712 29.152-70.016zM950.848 297.152l0-324.576-188 0 0 302.848q0 60-23.136 94.016t-72.288 34.016q-36 0-60.288-19.712t-36.288-48.864q-6.272-17.152-6.272-46.272l0-316-188 0q1.152 228 1.152 369.728t-0.576 169.152l-0.576 27.424 188 0 0-82.272-1.152 0q11.424 18.272 23.424 32t32.288 29.728 49.728 24.864 65.44 8.864q97.728 0 157.152-64.864t59.424-190.016z"  horiz-adv-x="1024" />

    
    <glyph glyph-name="starton" unicode="&#58912;" d="M576 896l-145.184-389.12L16 506.88l331.84-245.76L223.392-128 576 97.28 907.84-128l-103.68 389.12 331.84 245.76L721.184 506.88 576 896z"  horiz-adv-x="1152" />

    
    <glyph glyph-name="facebook" unicode="&#58998;" d="M767.428571 889.142857v-150.857143H677.714286q-49.142857 0-66.285715-20.571428t-17.142857-61.714286v-108h167.428572l-22.285715-169.142857H594.285714v-433.714286H419.428571V378.857143H273.714286V548h145.714285V672.571429q0 106.285714 59.428572 164.857142T637.142857 896q84 0 130.285714-6.857143z"  horiz-adv-x="1024" />

    
    <glyph glyph-name="calender" unicode="&#58905;" d="M256.59 631.604c14.765 0 26.737 9.451 26.737 21.108V811.023c0 11.657-11.972 21.108-26.737 21.108-14.765 0-26.737-9.451-26.737-21.108v-158.311c0-11.657 11.972-21.108 26.737-21.108zM783.081 738.552h-15.479v-95.691c0-20.981-21.548-37.994-42.53-37.994s-50.751 17.013-50.751 37.994v95.691H300.509v-95.691c0-20.981-23.249-37.994-44.231-37.994s-45.932 17.013-45.932 37.994v95.691h-2.111c-44.231 0-80.211-35.98-80.211-80.211v-641.688c0-44.231 35.98-80.211 80.211-80.211h574.846c44.231 0 80.211 35.98 80.211 80.211V658.341c0 44.231-35.98 80.211-80.211 80.211z m15.12-713.742c0-14.194-11.548-25.748-25.748-25.748H218.865c-14.201 0-25.748 11.554-25.748 25.748V475.405h605.085V24.81zM722.237 631.604c14.765 0 26.737 9.451 26.737 21.108V811.023c0 11.657-11.972 21.108-26.737 21.108-14.765 0-26.737-9.451-26.737-21.108v-158.311c0-11.657 11.972-21.108 26.737-21.108z"  horiz-adv-x="1024" />

    
    <glyph glyph-name="account" unicode="&#58883;" d="M512 725.333333a170.666667 170.666667 0 0 0 170.666667-170.666666 170.666667 170.666667 0 0 0-170.666667-170.666667 170.666667 170.666667 0 0 0-170.666667 170.666667 170.666667 170.666667 0 0 0 170.666667 170.666666m0-426.666666c188.586667 0 341.333333-76.373333 341.333333-170.666667v-85.333333H170.666667v85.333333c0 94.293333 152.746667 170.666667 341.333333 170.666667z"  horiz-adv-x="1024" />

    
    <glyph glyph-name="android-debug-bridge" unicode="&#58906;" d="M640 512a42.666667 42.666667 0 0 0-42.666667 42.666667 42.666667 42.666667 0 0 0 42.666667 42.666666 42.666667 42.666667 0 0 0 42.666667-42.666666 42.666667 42.666667 0 0 0-42.666667-42.666667M384 512a42.666667 42.666667 0 0 0-42.666667 42.666667 42.666667 42.666667 0 0 0 42.666667 42.666666 42.666667 42.666667 0 0 0 42.666667-42.666666 42.666667 42.666667 0 0 0-42.666667-42.666667m303.786667 197.546667l89.6 89.6-34.986667 35.413333-98.56-98.56C604.16 756.053333 559.36 768 512 768c-47.786667 0-92.16-11.946667-131.84-32L281.6 834.56l-34.986667-35.413333 89.6-89.6C261.973333 655.36 213.333333 568.32 213.333333 469.333333v-42.666666h597.333334v42.666666c0 98.986667-48.64 186.026667-122.88 240.213334M213.333333 213.333333c0-164.693333 133.546667-298.666667 298.666667-298.666666a298.666667 298.666667 0 0 1 298.666667 298.666666v170.666667H213.333333v-170.666667z"  horiz-adv-x="1024" />

    
    <glyph glyph-name="email-open-outline" unicode="&#59155;" d="M512 240.64l-341.333333 213.333333V128h682.666666v325.973333l-341.333333-213.333333M170.666667 554.666667l341.333333-213.333334 341.333333 213.333334-341.333333 213.333333-341.333333-213.333333m768 0v-426.666667a85.333333 85.333333 0 0 0-85.333334-85.333333H170.666667a85.333333 85.333333 0 0 0-85.333334 85.333333V554.666667c0 31.146667 16.64 58.026667 41.386667 72.96L512 868.693333l385.28-241.066666c24.746667-14.933333 41.386667-41.813333 41.386667-72.96z"  horiz-adv-x="1024" />

    
    <glyph glyph-name="internet-explorer" unicode="&#59323;" d="M554.666667 768l42.666666-2.56c119.466667 54.186667 223.146667 60.586667 277.333334 5.973333 42.666667-43.093333 46.08-117.333333 17.92-204.8A382.762667 382.762667 0 0 0 938.666667 384l-2.133334-42.666667H387.413333c15.786667-97.28 84.48-170.666667 167.253334-170.666666 55.893333 0 105.386667 33.706667 136.533333 85.333333h226.133333c-53.333333-149.333333-195.413333-256-362.666666-256-54.613333 0-106.666667 11.52-153.173334 32-124.16-61.013333-235.52-70.4-291.84-13.226667C42.666667 87.04 71.68 231.68 170.666667 384c39.68 62.293333 91.306667 125.44 152.32 185.6l34.56 32.853333c-49.92-29.44-113.92-74.24-178.773334-140.373333A384 384 0 0 0 554.666667 768m0-170.666667c-76.373333 0-141.226667-62.72-162.986667-149.333333h325.973333C695.893333 534.613333 631.04 597.333333 554.666667 597.333333m301.226666 125.44c-28.16 28.586667-78.506667 30.293333-141.653333 10.666667 63.146667-29.44 117.76-74.666667 156.586667-131.413333 13.653333 52.906667 9.813333 95.573333-14.933334 120.746666M165.973333 42.666667c35.413333-35.84 107.093333-29.44 194.133334 10.24a386.218667 386.218667 0 0 0-169.386667 208.213333C139.52 164.266667 128 82.346667 165.973333 42.666667z"  horiz-adv-x="1024" />

    
    <glyph glyph-name="menu" unicode="&#59369;" d="M128 640h768v-85.333333H128V640m0-213.333333h768v-85.333334H128v85.333334m0-213.333334h768v-85.333333H128v85.333333z"  horiz-adv-x="1024" />

    
    <glyph glyph-name="reload" unicode="&#59510;" d="M810.666667 384h141.653333l-211.2-211.2L529.92 384h194.133333a248.32 248.32 0 0 1-73.813333 181.333333 256 256 0 0 1-361.813333 0 256.469333 256.469333 0 0 1 0-362.24 256.341333 256.341333 0 0 1 290.986666-49.92l62.72-62.72a340.906667 340.906667 0 0 0-414.293333 52.48c-133.12 133.12-132.693333 349.013333 0.426667 482.133334 134.4 133.546667 349.013333 133.973333 482.56 0.426666A340.48 340.48 0 0 0 810.666667 384z"  horiz-adv-x="1024" />

    
    <glyph glyph-name="HOME" unicode="&#59145;" d="M826.32704 416.74752l-307.2 223.41632a20.43904 20.43904 0 0 1-24.10496 0l-307.2-223.41632a20.48 20.48 0 1 1 24.10496-33.11616l40.42752 29.40928V132.096a20.48 20.48 0 0 1 20.48-20.48h165.376a20.48 20.48 0 0 1 20.48 20.48v192.36864h96.768V132.096a20.48 20.48 0 0 1 20.48-20.48h165.376a20.48 20.48 0 0 1 20.48 20.48V413.02016l40.42752-29.40928a20.43904 20.43904 0 0 1 28.61056 4.52608 20.48 20.48 0 0 1-4.5056 28.61056z m-105.49248-264.192h-124.416v192.36864a20.48 20.48 0 0 1-20.48 20.48h-137.728a20.48 20.48 0 0 1-20.48-20.48v-192.36864h-124.416V442.81856l213.77024 155.46368 213.77024-155.46368v-290.26304z"  horiz-adv-x="1024" />

    
    <glyph glyph-name="map" unicode="&#58903;" d="M456.8-98.4c27.2-30.4 72.8-30.4 100 0.8 2.4 2.4 7.2 8 14.4 16 12 12.8 24.8 28 38.4 44.8 40 47.2 80 98.4 117.6 150.4s70.4 103.2 96.8 151.2c49.6 88.8 76.8 165.6 76.8 228.8 0.8 222.4-176 402.4-394.4 402.4S112 716 112 493.6c0-63.2 27.2-140.8 76.8-229.6 27.2-48 60-99.2 96.8-151.2 37.6-52 77.6-103.2 117.6-150.4 14.4-16.8 27.2-32 38.4-44.8 8-8 12.8-13.6 15.2-16z m35.2 32.8c-2.4 2.4-7.2 8-14.4 16-11.2 12.8-24 28-37.6 44-39.2 46.4-78.4 96.8-115.2 147.2C288 192.8 256 241.6 230.4 288 184.8 370.4 160 440.8 160 493.6 160 688.8 315.2 847.2 506.4 847.2s347.2-158.4 347.2-353.6c0-52.8-24.8-123.2-70.4-204.8-25.6-46.4-57.6-96-94.4-146.4-36.8-51.2-76-100.8-115.2-147.2-13.6-16-26.4-31.2-37.6-44-7.2-8-12-12.8-14.4-16-8.8-9.6-20.8-10.4-29.6-0.8zM506.4 317.6c-108 0-196 88-196 196s88 196 196 196 196-88 196-196-88-196-196-196z m0 344c-81.6 0-148-66.4-148-148s66.4-148 148-148S654.4 432 654.4 513.6s-66.4 148-148 148z"  horiz-adv-x="1024" />

    
    <glyph glyph-name="vertical-align-top" unicode="&#59376;" d="M859.9 728H164.1c-4.5 0-8.1-3.6-8.1-8v-60c0-4.4 3.6-8 8.1-8h695.8c4.5 0 8.1 3.6 8.1 8v60c0 4.4-3.6 8-8.1 8zM518.3 541c-3.2 4.1-9.4 4.1-12.6 0l-112-141.7c-4.1-5.2-0.4-12.9 6.3-12.9h73.9V48c0-4.4 3.6-8 8-8h60c4.4 0 8 3.6 8 8V386.3H624c6.7 0 10.4 7.7 6.3 12.9L518.3 541z"  horiz-adv-x="1024" />

    
    <glyph glyph-name="trending-up" unicode="&#59448;" d="M780.501333 584.832L597.333333 401.664l-170.666666 170.666667-328.832-328.832 60.330666-60.330667L426.666667 451.669333l170.666666-170.666666 243.498667 243.498666L938.666667 426.666667V682.666667h-256z"  horiz-adv-x="1024" />

    
    <glyph glyph-name="print" unicode="&#59156;" d="M42.666667 384a213.333333 213.333333 0 0 0 213.333333 213.333333h512a213.333333 213.333333 0 0 0 213.333333-213.333333v-256a42.666667 42.666667 0 0 0-42.666666-42.666667h-128a42.666667 42.666667 0 1 0 0 85.333334h85.333333v213.333333a128 128 0 0 1-128 128H256a128 128 0 0 1-128-128v-213.333333h85.333333a42.666667 42.666667 0 1 0 0-85.333334H85.333333a42.666667 42.666667 0 0 0-42.666666 42.666667v256zM213.333333 810.666667a42.666667 42.666667 0 0 0 42.666667 42.666666h512a42.666667 42.666667 0 0 0 42.666667-42.666666v-256a42.666667 42.666667 0 0 0-42.666667-42.666667H256a42.666667 42.666667 0 0 0-42.666667 42.666667V810.666667z m85.333334-42.666667v-170.666667h426.666666V768H298.666667zM213.333333 256a42.666667 42.666667 0 0 0 42.666667 42.666667h512a42.666667 42.666667 0 0 0 42.666667-42.666667v-298.666667a42.666667 42.666667 0 0 0-42.666667-42.666666H256a42.666667 42.666667 0 0 0-42.666667 42.666666v298.666667z m85.333334-42.666667v-213.333333h426.666666v213.333333H298.666667zM640 405.333333a42.666667 42.666667 0 0 0 42.666667 42.666667h85.333333a42.666667 42.666667 0 0 0 0-85.333333h-85.333333a42.666667 42.666667 0 0 0-42.666667 42.666666zM490.666667 405.333333a42.666667 42.666667 0 0 0 42.666666 42.666667h21.333334a42.666667 42.666667 0 0 0 0-85.333333h-21.333334a42.666667 42.666667 0 0 0-42.666666 42.666666z"  horiz-adv-x="1024" />

    


  </font>
</defs>
</svg>
